<mxfile host="app.diagrams.net" modified="2024-01-20T08:53:29.648Z" agent="Mozilla/5.0 (Windows NT 10.0; Win64; x64) AppleWebKit/537.36 (KHTML, like Gecko) Chrome/120.0.0.0 Safari/537.36" version="22.1.21" etag="tYwuJl74gjM_3xTgyenv" type="github">
  <diagram name="Page-1" id="6dUCpvU4raf_RvqKMQsj">
    <mxGraphModel>
      <root>
        <mxCell id="0" />
        <mxCell id="1" parent="0" />
      </root>
    </mxGraphModel>
  </diagram>
</mxfile>
